<svg xmlns="http://www.w3.org/2000/svg" viewBox="0 0 800 560" width="800" height="560" role="img">


  <defs>
    <linearGradient id="bg" x1="0" y1="0" x2="1" y2="1">
      <stop offset="0" stop-color="#f3fbfd"/>
      <stop offset="1" stop-color="#e2f6fa"/>
    </linearGradient>
    <linearGradient id="body" x1="0" y1="0" x2="1" y2="0">
      <stop offset="0" stop-color="#ffffff"/>
      <stop offset="0.55" stop-color="#f7fafd"/>
      <stop offset="1" stop-color="#e9f0f7"/>
    </linearGradient>
    <linearGradient id="water" x1="0" y1="0" x2="0" y2="1">
      <stop offset="0" stop-color="#4fc9e0" stop-opacity="0.75"/>
      <stop offset="1" stop-color="#159fbd" stop-opacity="0.95"/>
    </linearGradient>
    <linearGradient id="panel" x1="0" y1="0" x2="0" y2="1">
      <stop offset="0" stop-color="#14395c"/>
      <stop offset="1" stop-color="#0a2540"/>
    </linearGradient>
    <linearGradient id="copper" x1="0" y1="0" x2="1" y2="0">
      <stop offset="0" stop-color="#dda15e"/>
      <stop offset="1" stop-color="#b87333"/>
    </linearGradient>
    <linearGradient id="accent" x1="0" y1="0" x2="0" y2="1">
      <stop offset="0" stop-color="#b388f0"/>
      <stop offset="1" stop-color="#7c5ac7"/>
    </linearGradient>

  </defs>
  <rect width="800" height="560" fill="url(#bg)"/>
  <rect x="0" y="430" width="800" height="130" fill="#e8f1f6"/>
  <rect x="90" y="110" width="620" height="322" rx="12" fill="#ffffff" stroke="#cbdfe8" stroke-width="3"/>
  <rect x="90" y="110" width="620" height="74" rx="12" fill="url(#panel)"/>
  <rect x="130" y="132" width="250" height="30" rx="8" fill="#ffffff" opacity="0.2"/>
  <rect x="560" y="132" width="110" height="30" rx="8" fill="#0d7d92" opacity="0.55"/>
  <rect x="126" y="216" width="220" height="180" rx="10" fill="#e2f6fa" stroke="#cbdfe8" stroke-width="3"/>
  <rect x="378" y="216" width="152" height="180" rx="10" fill="#e2f6fa" stroke="#cbdfe8" stroke-width="3"/>
  <rect x="562" y="216" width="112" height="216" rx="10" fill="#ffffff" stroke="#cbdfe8" stroke-width="3"/>
  <rect x="586" y="250" width="64" height="130" rx="12" fill="url(#body)" stroke="#cbdfe8" stroke-width="2"/>
  <rect x="586" y="250" width="64" height="34" rx="12" fill="url(#panel)"/>
  <g>
    <rect x="156" y="248" width="60" height="112" rx="12" fill="url(#body)" stroke="#cbdfe8" stroke-width="2"/>
    <rect x="156" y="248" width="60" height="30" rx="12" fill="url(#panel)"/>
    <rect x="242" y="248" width="60" height="112" rx="12" fill="url(#body)" stroke="#cbdfe8" stroke-width="2"/>
    <rect x="242" y="248" width="60" height="30" rx="12" fill="url(#accent)"/>
    <rect x="404" y="248" width="100" height="112" rx="12" fill="url(#body)" stroke="#cbdfe8" stroke-width="2"/>
    <rect x="404" y="248" width="100" height="30" rx="12" fill="url(#panel)"/>
  </g>
  <rect x="126" y="396" width="404" height="36" fill="#cbdfe8" opacity="0.5"/>
  
  <path transform="translate(740 90) scale(1.2)" fill="#0d7d92" opacity="0.22"
    d="M0 -26 C 12 -8 20 2 20 11 A 20 20 0 0 1 -20 11 C -20 2 -12 -8 0 -26 Z"/>
</svg>
